<svg xmlns="http://www.w3.org/2000/svg" width="91" height="91" viewBox="0 0 91 91"><g transform="translate(-286 -6513)"><g transform="translate(295 6522)"><path d="M161.89,345.99a36.935,36.935,0,1,1-36.938,37.059A37.015,37.015,0,0,1,161.89,345.99Zm-33.157,45.716c1.072-1.074,2.1-2.141,3.17-3.158a1.5,1.5,0,0,0,.494-1.454,28.652,28.652,0,0,1-.149-7.256,29.161,29.161,0,0,1,5.717-14.706c.943-1.277,1.561-1.317,2.688-.19q5.442,5.438,10.881,10.88,14.193,14.192,28.385,28.384c1.061,1.061,1.017,1.7-.169,2.593a29.607,29.607,0,0,1-22.017,5.632c-.383-.053-.8-.163-1.129.169-1.149,1.154-2.3,2.31-3.459,3.48,8.688,2.732,23.5,1.658,34.1-9.888A33.829,33.829,0,0,0,196.3,383.74a31.9,31.9,0,0,0-1.172-9.668c-1.157,1.156-2.187,2.226-3.265,3.244a1.449,1.449,0,0,0-.463,1.394,29.5,29.5,0,0,1-5.818,22.319,1.282,1.282,0,0,1-2.15.147c-.127-.118-.247-.244-.369-.367l-31.066-31.064q-4.153-4.153-8.3-8.308a1.293,1.293,0,0,1,.145-2.239c.692-.521,1.4-1.032,2.13-1.49a29.433,29.433,0,0,1,20.126-4.3c.359.048.756.159,1.063-.149,1.164-1.168,2.321-2.345,3.5-3.535a34.112,34.112,0,0,0-33.877,9.664C127.139,369.639,126.1,383.154,128.733,391.706Zm32.87-17.165c5.04-.038,8.779,3.614,8.62,8.47-.046,1.383.686,2.038,1.444,2.871.515.565.82.53,1.347,0,3.9-3.945,7.834-7.857,11.757-11.781.7-.7.7-.7.008-1.388q-6.33-6.332-12.662-12.662c-.7-.7-.705-.7-1.388-.019l-10.508,10.508c-.508.508-1.019,1.013-1.521,1.526-.167.171-.441.386-.173.619C159.486,373.513,160.062,375.037,161.6,374.541Zm-8.083,8.13a2.087,2.087,0,0,0-1.014-2.319,2.216,2.216,0,0,1-.419-.42c-.436-.59-.786-.5-1.283,0q-5.881,5.939-11.822,11.82c-.535.53-.538.828,0,1.359q6.389,6.326,12.715,12.715c.521.526.82.558,1.359.012,3.918-3.962,7.869-7.893,11.809-11.833q.183-.184.363-.373c.159-.167.2-.355.02-.521-.947-.866-1.6-1.94-3.278-1.874C157.159,391.426,153.5,387.67,153.52,382.671Zm17.859-26.4a1.819,1.819,0,0,1,1.314.742q7.514,7.516,15.029,15.03c1.114,1.114,1.113,1.6,0,2.714q-6.305,6.307-12.612,12.613c-.965.966-.932.936-.014,1.937.5.549.791.464,1.278-.027q7.594-7.646,15.24-15.239c.5-.5.519-.767.007-1.276q-9.827-9.775-19.6-19.6c-.5-.5-.754-.457-1.223.015q-7.49,7.538-15.017,15.042c-1,1-1.005.729-.018,1.723.817.822.6.836,1.447-.007q6.468-6.46,12.929-12.926A1.878,1.878,0,0,1,171.379,356.272ZM152.363,409.56a1.842,1.842,0,0,1-1.247-.726l-15.081-15.084c-1.072-1.072-1.067-1.571.023-2.661l12.611-12.613c.983-.982.956-.959-.008-1.987-.447-.476-.7-.478-1.171-.007q-7.647,7.7-15.346,15.344c-.5.5-.455.754.016,1.223q9.822,9.779,19.6,19.6c.533.536.8.447,1.277-.037Q160.5,405.1,168,397.63c.887-.887.89-.89,0-1.779-.77-.767-.6-.77-1.345-.024q-6.52,6.513-13.034,13.032A1.77,1.77,0,0,1,152.363,409.56Zm12.26-53.787c-1.623-.032-3.065-.17-4.534-.07a27.3,27.3,0,0,0-13.168,4.4c-.474.306-.546.49-.106.92q2.9,2.829,5.728,5.731c.47.484.72.44,1.171-.016,3.451-3.488,6.929-6.949,10.4-10.419C164.249,356.182,164.378,356.035,164.623,355.774ZM134.8,385.553a2.207,2.207,0,0,0,.271-.191q5.407-5.4,10.818-10.8c.388-.385.234-.6-.07-.9-1.932-1.917-3.869-3.829-5.766-5.78-.479-.493-.674-.4-1.013.122a27.187,27.187,0,0,0-4.129,10.874A23.631,23.631,0,0,0,134.8,385.553Zm54.228-5.276a1.321,1.321,0,0,0-.221.121q-5.444,5.437-10.893,10.868c-.379.376-.262.588.052.9q2.958,2.93,5.887,5.888c.311.314.487.394.774-.044A27.063,27.063,0,0,0,189.028,380.277Zm-29.936,29.77c1.682.059,3.12.175,4.584.079a27.192,27.192,0,0,0,13.236-4.425c.46-.3.481-.482.087-.869q-2.916-2.865-5.78-5.785c-.451-.462-.7-.4-1.116.027q-4.312,4.362-8.666,8.681C160.719,408.472,159.987,409.174,159.092,410.047Zm35.371-38.083c-3.2-10.3-12.334-18.862-21.569-21.566Zm-65.07,22.027c2.841,9.521,11.581,18.422,21.453,21.454Zm38.133-12.4c-.319-2.071-2.487-4.216-4.24-4.256Zm-11.264,2.661c.21,2.175,2.958,4.408,4.165,4.175Z" transform="translate(-124.951 -345.99)" fill="#423a74"/><path d="M216.554,400.106a1.254,1.254,0,0,1-.982-.442c-1.119-1.121-2.249-2.231-3.356-3.364a1.259,1.259,0,0,1,.021-2.012q2.821-2.849,5.67-5.671a1.278,1.278,0,0,1,2.068,0q1.644,1.61,3.256,3.254a1.279,1.279,0,0,1,.028,2.07c-1.879,1.9-3.776,3.784-5.666,5.674A1.317,1.317,0,0,1,216.554,400.106ZM220.6,393a.5.5,0,0,0-.209-.414c-.241-.248-.487-.49-.731-.735-.716-.716-.716-.716-1.407-.026l-2.146,2.146c-1.39,1.39-1.379,1.378.047,2.723.344.324.543.279.843-.029,1.086-1.112,2.194-2.2,3.291-3.3C220.4,393.245,220.506,393.108,220.6,393Z" transform="translate(-170.097 -367.894)" fill="#423a74"/><path d="M179.1,437.569a1.26,1.26,0,0,1-.447.981c-1.907,1.908-3.808,3.822-5.726,5.72a1.261,1.261,0,0,1-2.013,0q-1.7-1.662-3.359-3.361a1.241,1.241,0,0,1,.015-1.958q2.845-2.878,5.722-5.724a1.261,1.261,0,0,1,2.013,0c1.133,1.107,2.243,2.237,3.363,3.357A1.244,1.244,0,0,1,179.1,437.569Zm-3.141.055a.528.528,0,0,0-.223-.414c-.346-.353-.711-.687-1.041-1.053-.28-.31-.5-.305-.787,0-.806.834-1.636,1.645-2.456,2.465-1.387,1.387-1.379,1.379.073,2.722.3.281.5.3.789,0,1.122-1.147,2.264-2.272,3.4-3.41A3.388,3.388,0,0,0,175.964,437.624Z" transform="translate(-146.875 -391.115)" fill="#423a74"/></g><rect width="91" height="91" transform="translate(286 6513)" fill="none"/></g></svg>